<?xml version="1.0" encoding="utf-8"?>
<!-- Generator: Adobe Illustrator 19.1.0, SVG Export Plug-In . SVG Version: 6.00 Build 0)  -->
<svg version="1.1" id="Layer_1" xmlns="http://www.w3.org/2000/svg" xmlns:xlink="http://www.w3.org/1999/xlink" x="0px" y="0px"
	 viewBox="-255 364.6 100 40.9" enable-background="new -255 364.6 100 40.9" xml:space="preserve">
<g>
	<g>
		<path fill="#231F20" d="M-243.3,372.6v4.9h-5.1c-0.9,0-1.6,0.7-1.6,1.6v9.6c0,0.9,0.7,1.6,1.6,1.6h5.1v4.9c0,2,1.6,3.6,3.6,3.6
			h71.1c2,0,3.6-1.6,3.6-3.6v-0.3h3.3c0.9,0,1.6-0.7,1.6-1.6v-18.9c0-0.9-0.7-1.6-1.6-1.6h-3.3v-0.3c0-2-1.6-3.6-3.6-3.6h-71.1
			C-241.7,369-243.3,370.6-243.3,372.6z"/>
	</g>
	<rect x="-247.9" y="379.2" fill="#9DA0A5" width="4.5" height="9.2"/>
	<path fill="#A75125" stroke="#231F20" stroke-miterlimit="10" d="M-241.3,396.9v-7.5v-10.9v-7.5c0-0.2,0.2-0.4,0.4-0.4h22.8v26.6
		h-22.8C-241.1,397.3-241.3,397.1-241.3,396.9z"/>
	<rect x="-165.6" y="375" fill="#9DA0A5" width="3.5" height="17.9"/>
	<path fill="#9DA0A5" stroke="#231F20" stroke-miterlimit="10" d="M-167.3,371.1v2.2v21.5v2.2c0,0.2-0.2,0.4-0.4,0.4h-49.2v-26.6
		h49.2C-167.4,370.7-167.3,370.9-167.3,371.1z"/>
	<path fill="#231F20" d="M-227.9,388.4v-2.7h2.7c0.9,0,1.6-0.7,1.6-1.6c0-0.9-0.7-1.6-1.6-1.6h-2.7v-2.7c0-0.9-0.7-1.6-1.6-1.6
		s-1.6,0.7-1.6,1.6v2.7h-2.7c-0.9,0-1.6,0.7-1.6,1.6c0,0.9,0.7,1.6,1.6,1.6h2.7v2.7c0,0.9,0.7,1.6,1.6,1.6S-227.9,389.3-227.9,388.4
		z"/>
</g>
</svg>
