<?xml version="1.0" encoding="utf-8"?>
<!-- Generator: Adobe Illustrator 19.1.0, SVG Export Plug-In . SVG Version: 6.00 Build 0)  -->
<svg version="1.1" id="Layer_1" xmlns:sketch="http://www.bohemiancoding.com/sketch/ns"
	 xmlns="http://www.w3.org/2000/svg" xmlns:xlink="http://www.w3.org/1999/xlink" x="0px" y="0px" viewBox="-251.9 353.1 93.7 62.3"
	 style="enable-background:new -251.9 353.1 93.7 62.3;" xml:space="preserve">
<style type="text/css">
	.st0{fill:#6B8795;}
	.st1{fill:#FFFFFF;}
	.st2{font-family:'ArialMT';}
	.st3{font-size:3.8213px;}
	.st4{fill:#4B6B26;}
	.st5{font-size:4px;}
	.st6{fill:#573829;}
	.st7{font-size:3px;}
</style>
<title>Omnibox</title>
<desc>Created with Sketch.</desc>
<path class="st0" d="M-250,358c0-1.7,1.3-3,3-3h84c1.7,0,3,1.3,3,3v52c0,1.7-1.3,3-3,3h-84c-1.7,0-3-1.3-3-3V358z"/>
<path class="st1" d="M-248,364h86v45c0,1.1-0.9,2-2,2h-82c-1.1,0-2-0.9-2-2V364z"/>
<circle class="st1" cx="-246.5" cy="359.5" r="1.5"/>
<circle class="st1" cx="-241.5" cy="359.5" r="1.5"/>
<circle class="st1" cx="-236.5" cy="359.5" r="1.5"/>
<path class="st1" d="M-231,358c0-0.6,0.4-1,1-1h65c0.6,0,1,0.4,1,1v3c0,0.6-0.4,1-1,1h-65c-0.6,0-1-0.4-1-1V358z"/>
<text transform="matrix(1 0 0 1 -228.1486 361.0001)" class="st2 st3">http://192.168.1.4</text>
<g>
	<rect x="-248" y="364" class="st4" width="86" height="6.4"/>
	<text transform="matrix(1 0 0 1 -246.6543 368.7881)" class="st1 st2 st5">PlantMinder</text>
	<path class="st6" d="M-198.5,382.1H-216c-0.6,0-1-0.4-1-1v-4.7c0-0.6,0.4-1,1-1h17.5c0.6,0,1,0.4,1,1v4.7
		C-197.5,381.6-197.9,382.1-198.5,382.1z"/>
	<path class="st6" d="M-198.5,390.8H-216c-0.6,0-1-0.4-1-1v-4.7c0-0.6,0.4-1,1-1h17.5c0.6,0,1,0.4,1,1v4.7
		C-197.5,390.4-197.9,390.8-198.5,390.8z"/>
	<text transform="matrix(1 0 0 1 -210.4509 379.8766)" class="st1 st2 st7">Scan</text>
	<text transform="matrix(1 0 0 1 -212.0738 388.5013)" class="st1 st2 st7">Manual</text>
</g>
</svg>
