<?xml version="1.0" encoding="utf-8"?>
<!-- Generator: Adobe Illustrator 19.1.0, SVG Export Plug-In . SVG Version: 6.00 Build 0)  -->
<svg version="1.1" id="Layer_1" xmlns="http://www.w3.org/2000/svg" xmlns:xlink="http://www.w3.org/1999/xlink" x="0px" y="0px"
	 viewBox="-255 347 100 100" style="enable-background:new -255 347 100 100;" xml:space="preserve">
<style type="text/css">
	.st0{fill:#88963C;}
	.st1{fill:#417487;}
</style>
<path class="st0" d="M-246,419.2h-9v17.6c0,5.4,4.9,9.8,10.8,9.8h78.4c6,0,10.8-4.4,10.8-9.8v-17.6h-9V435c0,2-1.8,3.6-4,3.6h-74.2
	c-2.2,0-4-1.6-4-3.6L-246,419.2L-246,419.2z"/>
<polygon class="st0" points="-205,347.3 -255,363.1 -255,371.8 -205,356 -155,371.8 -155,363.1 "/>
<path class="st1" d="M-223.6,371.8c0,0.1-1.7,2.5-3.5,5.7c-0.9,1.6-1.7,3.5-2.4,5.3c-0.7,1.9-1.2,3.8-1.2,5.8c0,0.6,0.1,1.3,0.2,1.9
	c0.4,1.8,1.2,3.4,2,4.9c1.3,2.3,2.9,4.7,4.2,7.1c1.2,2.4,2,4.7,2,7.1c0,0.6-0.1,1.3-0.2,1.9c-0.7,3.7-3,7.1-5.1,9.6
	c-1.1,1.2-2.1,2.2-2.9,2.9c-0.4,0.3-0.7,0.6-0.9,0.8l-0.2,0.2l-0.1,0l3.2,4.3c0.1-0.1,2.4-1.8,4.9-4.6c2.5-2.9,5.4-7,6.4-12.1
	c0.2-1,0.3-2,0.3-2.9c0-4.8-2.1-8.8-4.1-12.1c-1-1.7-2-3.2-2.8-4.6c-0.8-1.4-1.3-2.6-1.5-3.4l-0.1-0.8c0-1,0.3-2.5,0.9-4
	c0.8-2.3,2.2-4.8,3.3-6.7c0.6-0.9,1.1-1.7,1.4-2.3l0.4-0.6l0.1-0.2L-223.6,371.8"/>
<path class="st1" d="M-204.3,371.8c0,0.1-1.7,2.5-3.5,5.7c-0.9,1.6-1.7,3.4-2.4,5.3c-0.7,1.9-1.2,3.8-1.2,5.8c0,0.6,0.1,1.3,0.2,1.9
	c0.4,1.8,1.2,3.4,2,4.9c1.3,2.3,2.9,4.7,4.2,7.1c1.2,2.4,2,4.7,2,7.1c0,0.6-0.1,1.3-0.2,1.9c-0.7,3.7-3,7.1-5.1,9.6
	c-1.1,1.2-2.1,2.2-2.9,2.9c-0.4,0.3-0.7,0.6-0.9,0.8l-0.2,0.2l-0.1,0l3.2,4.3c0.1-0.1,2.4-1.8,4.9-4.6c2.5-2.9,5.4-7,6.4-12
	c0.2-1,0.3-2,0.3-2.9c0-4.8-2.1-8.8-4.1-12.2c-1-1.7-2-3.2-2.8-4.6c-0.8-1.4-1.3-2.6-1.5-3.4l-0.1-0.8c0-1,0.3-2.5,0.9-4
	c0.8-2.3,2.2-4.8,3.3-6.7c0.6-0.9,1-1.7,1.4-2.3l0.4-0.6l0.1-0.2L-204.3,371.8"/>
<path class="st1" d="M-185.1,371.8c0,0.1-1.7,2.5-3.5,5.7c-0.9,1.6-1.7,3.4-2.4,5.3c-0.7,1.9-1.2,3.8-1.2,5.8c0,0.6,0.1,1.3,0.2,1.9
	c0.4,1.8,1.2,3.4,2,4.9c1.3,2.3,2.9,4.7,4.2,7.1c1.2,2.4,2,4.7,2,7.1c0,0.6-0.1,1.3-0.2,1.9c-0.7,3.7-3,7.1-5.1,9.6
	c-1.1,1.2-2.1,2.2-2.9,2.9c-0.4,0.3-0.7,0.6-0.9,0.8l-0.2,0.2l-0.1,0l3.2,4.3c0.1-0.1,2.4-1.8,4.9-4.6c2.5-2.9,5.4-7,6.4-12
	c0.2-1,0.3-2,0.3-2.9c0-4.8-2.1-8.8-4.1-12.1c-1-1.7-2-3.2-2.8-4.6c-0.8-1.4-1.3-2.6-1.5-3.4l-0.1-0.8c0-1,0.3-2.5,0.9-4
	c0.8-2.3,2.2-4.8,3.3-6.7c0.5-0.9,1-1.7,1.4-2.3l0.4-0.6l0.1-0.2L-185.1,371.8"/>
</svg>
