<?xml version="1.0" encoding="utf-8"?>
<!-- Generator: Adobe Illustrator 19.1.0, SVG Export Plug-In . SVG Version: 6.00 Build 0)  -->
<svg version="1.1" id="Layer_1" xmlns="http://www.w3.org/2000/svg" xmlns:xlink="http://www.w3.org/1999/xlink" x="0px" y="0px"
	 viewBox="-250 351.5 89.9 90" style="enable-background:new -250 351.5 89.9 90;" xml:space="preserve">
<style type="text/css">
	.st0{fill:#193441;}
	.st1{fill:#88963C;}
</style>
<path class="st0" d="M-189.3,417c2.4-2.9,2.8-6.8,2.6-10.6h-8h-16.9c0,0.1,0,0.2,0,0.3c0-0.1-0.1-0.2-0.2-0.2l0,0h-11.8h-1.2
	c-2,20,3,33.5,3,33.5c2,2,32,2,34,0c0,0,4.6-12.4,3.2-31.1c0.2-0.8,0.3-1.6,0.4-2.3h-1.1C-185.1,410.2-187,414.1-189.3,417z
	 M-203.7,409c0,0,0-0.1-0.1-0.1C-203.7,408.9-203.7,408.9-203.7,409C-203.6,408.9-203.6,408.9-203.7,409
	C-203.7,408.9-203.7,408.9-203.7,409z"/>
<path class="st1" d="M-179.2,398.7c0.1-1.4,0.2-2.8,0.2-4.2c0-1.5,0-3.4-0.4-5.2c1-1.7,1.9-3.5,2.6-5.3c1.4-3.6,2.2-7.4,3.6-11
	c0.6-1.4,1.4-2.8,2.2-4.1c3.6-1,7.3-1.5,11-1.7c-3.6-0.1-7.1,0.2-10.5,0.9c2.3-3.3,5.2-6.2,8.8-8c-4,1.7-7.4,4.8-10,8.3
	c-8.4,1.9-16,6.1-21.9,13c-1.9,2.2-3.6,4.6-5.1,7.1c-2.2-0.2-3.9,0.3-5.3,1.3c3.9-12.3,10.5-23.8,18.9-33.3
	c-11.2,10.8-19.9,25-24.3,40.1c-0.2-0.3-0.4-0.6-0.6-0.9c-6.1-15.7-9.3-35,5.1-44.2c-12.7,7-13.6,21.9-10.6,36.3
	c-3.2-10.7-8.7-20.8-17.3-27.3c7.6,6.8,12.1,16.4,14.5,26.7c-2.3-1.8-4.7-3.3-7.2-4.5c-4-1.9-8.6-2.6-12-5.7
	c-3.7-3.3-6.1-8.2-7.1-13c0.7,4.9,3,10,6.5,13.6c3.3,3.3,7.8,4.3,11.8,6.6c3.2,1.9,6.3,4.4,8.9,7.2c0.6,3.1,1,6.3,1.2,9.4
	c-4.2-4.9-9.3-9-15.3-10.8c-2-0.6-4.1-0.7-6-0.5c-1.1-1.7-2.1-3.5-3.2-5.2c-2.2-3.4-4.9-8.4-8.8-10.1c4,2.1,6.3,7.9,8.4,11.6
	c0.7,1.3,1.3,2.6,2,3.9c-4.1,0.9-7.8,3.4-10.8,6.7c3.2-2.9,7.2-5.1,11.4-5.6c0.8,1.5,1.6,2.9,2.6,4.3c3.2,4.4,7.5,8.1,12.2,11.3
	h11.8c-0.3-3.2-0.7-6.5-1.4-9.8c0.1,0.2,0.3,0.4,0.4,0.7c0.6,1.8,1.2,3.6,1.9,5.4c-0.3,1.2-0.5,2.5-0.7,3.8h16.9
	c0,0,4.7-3.8,6.8-5.9c1.1,1.5,2.1,2.8,2.5,4.9c0.1,0.3,0.1,0.7,0.1,1h1.1c0.2-2.6-0.5-5.1-2.3-7.3c0.7-0.8,1.5-1.7,2.2-2.6
	c1.3,0.9,2.6,1.8,3.9,2.7l0,0c-0.2,5.1-0.8,10.2-1.8,15.2c1.3-4.7,2.4-9.5,2.9-14.4c4.1,3.2,7.9,6.8,11.2,10.2
	C-171.4,406.5-175.1,402.4-179.2,398.7z M-234.4,393.6c-0.8-0.9-1.5-1.9-2.1-2.9c1.8,0,3.7,0.5,5.5,1.3c6,2.6,10.9,8.3,14.3,14.1
	C-223.3,403.1-229.9,399.1-234.4,393.6z M-191.2,382.2c4.8-6.4,11.5-10.6,18.9-12.9c-0.6,0.9-1.2,1.9-1.7,2.9
	c-1.6,3.1-2.4,6.5-3.8,9.6c-0.7,1.6-1.6,3.2-2.5,4.8c-0.4-0.8-0.9-1.4-1.6-1.9c-3.4-2.5-6.8,0.7-9.8,5.6c-1.2-0.5-2.5-1-3.7-1.3
	C-194.3,386.6-192.8,384.3-191.2,382.2z M-202.1,391.9c0.6-0.4,1.3-0.7,2-0.8c-1.8,3.6-3.3,7.4-4.3,11.2
	C-205.1,398.3-204.9,393.9-202.1,391.9z M-195.8,398.1c-1.8,1.5-3.6,3.7-5.1,5.9c0.8-4.4,2.2-8.8,4.2-12.9c0.3,0.1,0.6,0.1,0.8,0.2
	c1,0.2,1.9,0.5,2.9,0.8C-194,394.1-194.9,396.1-195.8,398.1z M-192.9,400.6c0.2-0.5,0.4-1,0.5-1.6c0.6-0.2,1.1-0.3,1.7-0.3
	C-191.3,399.4-192.1,400-192.9,400.6z M-188.7,397c-0.9-0.5-1.7-0.8-2.6-0.8c0.4-1,0.8-2,1.2-2.9c1.1,0.5,2.2,1.1,3.3,1.7
	C-187.4,395.7-188,396.4-188.7,397z M-185.6,393.7c-1.2-0.8-2.4-1.5-3.6-2.2c1.9-3.7,3.9-6.1,5.9-5.1c0.8,0.4,1.4,1.1,1.8,2
	C-182.7,390.2-184.1,392-185.6,393.7z M-180.4,397.7c-1-0.8-2-1.7-3-2.4c1-1.3,1.9-2.6,2.7-4C-180.3,393.4-180.3,395.9-180.4,397.7z
	"/>
<path class="st1" d="M-189.3,417c0,0,4.2-4.4,4-10.6h1.1C-184.2,406.4-183.9,410.2-189.3,417z"/>
</svg>
