<?xml version="1.0" encoding="utf-8"?>
<!-- Generator: Adobe Illustrator 19.1.0, SVG Export Plug-In . SVG Version: 6.00 Build 0)  -->
<svg version="1.1" id="Layer_1" xmlns="http://www.w3.org/2000/svg" xmlns:xlink="http://www.w3.org/1999/xlink" x="0px" y="0px"
	 viewBox="-218 255.9 173.7 121" enable-background="new -218 255.9 173.7 121" xml:space="preserve">
<path fill="#010101" d="M-178.7,286.5c-1.2-2.3-1.8-3.6-1.8-3.6C-180.4,283.8-179.7,285-178.7,286.5z"/>
<path fill="none" stroke="#010101" stroke-width="4" stroke-miterlimit="10" d="M-131.1,330.7c0.2,0.5,0.4,0.9,0.6,1.3
	c-0.1-0.1-0.2-0.2-0.2-0.3C-130.9,331.4-131,331.1-131.1,330.7z"/>
<path fill="#010101" d="M-70.6,297.7c1.4-1.3,2.3-2,2.3-2C-69,296.2-69.8,296.9-70.6,297.7z M-103,282c0.6-1.7,1.1-3.3,1.4-4.6
	C-101.6,277.5-102.1,279.2-103,282z"/>
<g>
	<path fill="#5D843A" d="M-119.3,376.9h-16.1c-5.5-11.4-12-23.4-17.4-33c-7.4-7.2-13.5-12.2-13.5-12.2c3.6,1.9,6.9,3.8,9.9,5.9
		c-4.3-7.4-7.2-12.2-7.2-12.2c3.8,3.1,9.2,10,14.7,17.8c4.7,3.8,8.5,7.7,11.6,11.4c-8-13.3-19.4-26.8-24-31.5
		c-11.5-11.4-22.4-25.1-22.4-25.1c1.4,0.4,23.7,21.9,23.7,21.9c1.6,1.3,3.3,2.9,5,4.6c-10.8-13.6-20.5-24.7-20.5-24.7
		c2.6,1.5,5.4,3.6,8.2,6.1c-5.7-8.8-9.4-15.5-11.4-19.4c5.3,7.8,20.8,22.8,29.2,34.2c4.8,6.7,10.3,15.2,14.7,22.2
		c-1-2.5-2-5.2-3.1-8.2c-14.6-18.1-38.1-52.2-38.1-52.2c4,2.9,9.4,8.2,15.2,14.4c-8.3-18.7-7-31.3-7-31.3
		c-0.4,8.1,11.4,32.2,16,41.2c2.2,2.5,4.4,5.1,6.5,7.6c-5.6-16.5-10.6-31.9-10.6-31.9c3.4,4.7,11.7,24.2,18.5,41.2
		c0.3,0.3,0.5,0.7,0.8,1c-7.1-24.1-16.1-48.6-16.1-48.6c3.7,2.6,12.4,27,19.2,47.4c-4.4-16.4-5.5-40.1-5.5-40.1
		c0.3,9.3,6.5,28.5,10.5,40.3c-3.9-15.2-9.6-43.5-9.6-44.4c0-5.4,4.6,10.3,8.5,24.5c-1.6-17-3-40-3-40c1.5,3.7,4.5,25.9,6.3,40.4
		c0.3-7,1.9-12.6,1.9-12.6c0.3,4.2,0.7,9.7,1,13.6c3.2-21,6.8-35.4,6.8-35.4c-0.4,6.7-1.4,20.6-2.4,36.4c2-8.5,4.2-20,4.2-20
		c0.4,4.3-1.2,20.6-2.1,24.2c4.5-8,11-20.1,14-28.2c-2.2,7.1-6.6,21-10.6,31.7c7.9-13.1,17.9-28.1,17.9-28.1
		c-0.7,3.2-6.4,14-11.5,24c11.6-18.1,25.7-37.2,25.7-37.2c-4,11.9-18.8,36.4-28.2,51.2c1.1-1.2,2.2-2.4,3.3-3.5
		c7.9-12.1,15.3-23,15.3-23c-0.5,2.7-2.6,7.7-5.4,13.4c7.3-7.3,19.1-19.9,22.3-22.1c0,0-15.3,18.6-29.1,35.3
		c-2,3.8-4.1,7.4-5.9,10.7c3.6-3.8,7.4-7.6,11.1-11.3c4.1-7.6,7-12.8,7-12.8c-2,4-3.9,7.8-5.6,11.5c11.1-10.8,21.7-20.2,26.2-24.1
		c-7.1,6.6-18.9,20.9-29.5,34.2c3.7-3.4,7.7-6.9,12.1-10.2c0,0-9.5,9.4-19.3,22.9C-114.8,361.7-118,371.5-119.3,376.9L-119.3,376.9z
		"/>
</g>
</svg>
