<?xml version="1.0" encoding="utf-8"?>
<!-- Generator: Adobe Illustrator 19.1.0, SVG Export Plug-In . SVG Version: 6.00 Build 0)  -->
<svg version="1.1" id="Layer_1" xmlns="http://www.w3.org/2000/svg" xmlns:xlink="http://www.w3.org/1999/xlink" x="0px" y="0px"
	 viewBox="1 77 462 509.8" enable-background="new 1 77 462 509.8" xml:space="preserve">
<path d="M47,365c-17.7,0-32-14.3-32-32c0-17.7,14.3-32,32-32s32,14.3,32,32C79,350.7,64.7,365,47,365z"/>
<path d="M108.6,259.4L88,283.9c29.2,24.5,29.2,73.8,0,98.3l20.5,24.6c21.9-18.3,34.5-45.2,34.5-73.7
	C143,304.5,130.5,277.6,108.6,259.4z"/>
<path d="M154.4,214.4l-21.5,23.7c26.8,24.2,42.1,58.8,42.1,94.9c0,36.1-15.3,70.6-42,94.8l21.5,23.7C187.9,421.2,207,378.1,207,333
	C207,287.9,187.8,244.7,154.4,214.4z"/>
<path d="M199.9,169.3l-21.8,23.4C216.8,228.9,239,280,239,333c0,53.8-21.6,103.6-60.9,140.3l21.9,23.4c45.1-42.2,71-101.8,71-163.7
	C271,271.2,245.1,211.5,199.9,169.3z"/>
<path d="M245.3,124.1l-22,23.2C274.7,196.1,303,262.1,303,333c0,70.9-28.3,136.8-79.6,185.6l22,23.2C303.2,486.9,335,412.7,335,333
	C335,253.2,303.1,179,245.3,124.1z"/>
<path d="M399,333c0-96.5-38.6-186.6-108.7-253.8l-22.2,23.1C331.9,163.4,367,245.4,367,333c0,87.7-35.1,169.6-98.8,230.7l22.2,23.1
	C360.4,519.6,399,429.5,399,333z"/>
</svg>
