<?xml version="1.0" encoding="utf-8"?>
<!-- Generator: Adobe Illustrator 19.1.0, SVG Export Plug-In . SVG Version: 6.00 Build 0)  -->
<svg version="1.1" id="Layer_1" xmlns="http://www.w3.org/2000/svg" xmlns:xlink="http://www.w3.org/1999/xlink" x="0px" y="0px"
	 viewBox="-283 368.7 44 56.3" style="enable-background:new -283 368.7 44 56.3;" xml:space="preserve">
<style type="text/css">
	.st0{fill:#FFCD34;}
</style>
<path class="st0" d="M-281,390.2h7v2h-7V390.2z"/>
<path class="st0" d="M-248,390.2h7v2h-7V390.2z"/>
<path class="st0" d="M-262,371.2h2v7h-2V371.2z"/>
<path class="st0" d="M-262,404.2h2v7h-2V404.2z"/>
<path class="st0" d="M-274.8,376l5.1,5.1l-1.4,1.4l-5.1-5.1L-274.8,376z"/>
<path class="st0" d="M-250.8,400l5.1,5.1l-1.4,1.4l-5.1-5.1L-250.8,400z"/>
<path class="st0" d="M-246,377.6l-5,5l-1.4-1.4l5-5L-246,377.6z"/>
<path class="st0" d="M-269.6,401.3l-5,5l-1.4-1.4l5-5L-269.6,401.3z"/>
<circle class="st0" cx="-261" cy="391.2" r="9"/>
</svg>
