<?xml version="1.0" encoding="utf-8"?>
<!-- Generator: Adobe Illustrator 19.1.0, SVG Export Plug-In . SVG Version: 6.00 Build 0)  -->
<svg version="1.1" id="Layer_1" xmlns="http://www.w3.org/2000/svg" xmlns:xlink="http://www.w3.org/1999/xlink" x="0px" y="0px"
	 viewBox="0 0 173.7 161.1" enable-background="new 0 0 173.7 161.1" xml:space="preserve">
<g>
	<polyline fill="#1C75BC" points="98.6,0 82.5,0 82.5,0 75.9,0 77,-6.1 66.8,-3.7 69.6,0 67.6,0 67.6,6.4 69.6,6.4 72.8,55.6 
		107.5,55.6 110.7,6.4 113.2,6.4 113.2,0 98.7,0 	"/>
</g>
<g>
	<g>
		<g>
			<defs>
				<path id="SVGID_1_" d="M24.7,61.1c0-3.3,1.1-5.4,2.3-5.4h128.8c1.4,0,2.3,2.5,2.3,5.4v6.5c0,3.3-1.1,5.4-2.3,5.4H26.9
					c-1.4,0-2.3-2.5-2.3-5.4V61.1z"/>
			</defs>
			<use xlink:href="#SVGID_1_"  overflow="visible" fill="#754C29"/>
			<clipPath id="SVGID_2_">
				<use xlink:href="#SVGID_1_"  overflow="visible"/>
			</clipPath>
			<rect x="23" y="51.6" clip-path="url(#SVGID_2_)" fill="#754C29" width="136.8" height="25.8"/>
		</g>
	</g>
	<g>
		<g>
			<g>
				<defs>
					<path id="SVGID_3_" d="M24.7,98.1c0-2.2,0.8-4,1.7-4h130.2c0.9,0,1.7,1.8,1.7,4v3.3c0,2.2-0.8,4-1.7,4H26.3
						c-0.9,0-1.7-1.8-1.7-4V98.1z"/>
				</defs>
				<use xlink:href="#SVGID_3_"  overflow="visible" fill="#754C29"/>
				<clipPath id="SVGID_4_">
					<use xlink:href="#SVGID_3_"  overflow="visible"/>
				</clipPath>
				<rect x="23" y="90.1" clip-path="url(#SVGID_4_)" fill="#754C29" width="136.8" height="19.2"/>
			</g>
		</g>
	</g>
	<g>
		<g>
			<g>
				<defs>
					<path id="SVGID_5_" d="M31,64.3c0-3.3,1.1-5.4,2.3-5.4h3.6c1.4,0,2.3,2.5,2.3,5.4v83.1c0,3.3-1.1,5.4-2.3,5.4h-3.6
						c-1.4,0-2.3-2.5-2.3-5.4C31,147.4,31,64.3,31,64.3z"/>
				</defs>
				<use xlink:href="#SVGID_5_"  overflow="visible" fill="#754C29"/>
				<clipPath id="SVGID_6_">
					<use xlink:href="#SVGID_5_"  overflow="visible"/>
				</clipPath>
				<rect x="29.3" y="54.9" clip-path="url(#SVGID_6_)" fill="#754C29" width="11.6" height="102.3"/>
			</g>
		</g>
	</g>
	<g>
		<g>
			<g>
				<defs>
					<path id="SVGID_7_" d="M141.9,64.3c0-3.3,1.1-5.4,2.3-5.4h3.6c1.4,0,2.3,2.5,2.3,5.4v83.1c0,3.3-1.1,5.4-2.3,5.4h-3.6
						c-1.4,0-2.3-2.5-2.3-5.4V64.3z"/>
				</defs>
				<use xlink:href="#SVGID_7_"  overflow="visible" fill="#754C29"/>
				<clipPath id="SVGID_8_">
					<use xlink:href="#SVGID_7_"  overflow="visible"/>
				</clipPath>
				<rect x="140.2" y="54.9" clip-path="url(#SVGID_8_)" fill="#754C29" width="11.6" height="102.3"/>
			</g>
		</g>
	</g>
</g>
</svg>
