<svg xmlns="http://www.w3.org/2000/svg" xmlns:xlink="http://www.w3.org/1999/xlink" viewBox="0 0 173.7 282.1">
  <path fill="#010101" d="M39.3 30.6c-1.2-2.3-1.8-3.6-1.8-3.6.1.9.8 2.1 1.8 3.6z"/>
  <path fill="none" stroke="#010101" stroke-width="4" stroke-miterlimit="10" d="M86.9 74.8c.2.5.4.9.6 1.3-.1-.1-.2-.2-.2-.3-.2-.3-.3-.6-.4-1z"/>
  <path fill="#1C75BC" d="M98.6 121H75.9l1.1-6.1-10.2 2.4 2.8 3.7h-2v6.4h2l3.2 49.2h34.7l3.2-49.2h2.5V121H98.7"/>
  <path fill="#010101" d="M147.4 41.8c1.4-1.3 2.3-2 2.3-2-.7.5-1.5 1.2-2.3 2zM115 26.1c.6-1.7 1.1-3.3 1.4-4.6 0 .1-.5 1.8-1.4 4.6z"/>
  <path fill="#5D843A" d="M98.7 121H82.6c-5.5-11.4-12-23.4-17.4-33-7.4-7.2-13.5-12.2-13.5-12.2 3.6 1.9 6.9 3.8 9.9 5.9-4.3-7.4-7.2-12.2-7.2-12.2 3.8 3.1 9.2 10 14.7 17.8 4.7 3.8 8.5 7.7 11.6 11.4-8-13.3-19.4-26.8-24-31.5-11.5-11.4-22.4-25.1-22.4-25.1C35.7 42.5 58 64 58 64c1.6 1.3 3.3 2.9 5 4.6C52.2 55 42.5 43.9 42.5 43.9c2.6 1.5 5.4 3.6 8.2 6.1-5.7-8.8-9.4-15.5-11.4-19.4 5.3 7.8 20.8 22.8 29.2 34.2C73.3 71.5 78.8 80 83.2 87c-1-2.5-2-5.2-3.1-8.2C65.5 60.7 42 26.6 42 26.6c4 2.9 9.4 8.2 15.2 14.4-8.3-18.7-7-31.3-7-31.3-.4 8.1 11.4 32.2 16 41.2 2.2 2.5 4.4 5.1 6.5 7.6C67.1 42 62.1 26.6 62.1 26.6c3.4 4.7 11.7 24.2 18.5 41.2.3.3.5.7.8 1-7.1-24.1-16.1-48.6-16.1-48.6 3.7 2.6 12.4 27 19.2 47.4C80.1 51.2 79 27.5 79 27.5c.3 9.3 6.5 28.5 10.5 40.3-3.9-15.2-9.6-43.5-9.6-44.4 0-5.4 4.6 10.3 8.5 24.5-1.6-17-3-40-3-40 1.5 3.7 4.5 25.9 6.3 40.4.3-7 1.9-12.6 1.9-12.6.3 4.2.7 9.7 1 13.6 3.2-21 6.8-35.4 6.8-35.4-.4 6.7-1.4 20.6-2.4 36.4 2-8.5 4.2-20 4.2-20 .4 4.3-1.2 20.6-2.1 24.2 4.5-8 11-20.1 14-28.2-2.2 7.1-6.6 21-10.6 31.7 7.9-13.1 17.9-28.1 17.9-28.1-.7 3.2-6.4 14-11.5 24 11.6-18.1 25.7-37.2 25.7-37.2-4 11.9-18.8 36.4-28.2 51.2 1.1-1.2 2.2-2.4 3.3-3.5 7.9-12.1 15.3-23 15.3-23-.5 2.7-2.6 7.7-5.4 13.4 7.3-7.3 19.1-19.9 22.3-22.1 0 0-15.3 18.6-29.1 35.3-2 3.8-4.1 7.4-5.9 10.7 3.6-3.8 7.4-7.6 11.1-11.3 4.1-7.6 7-12.8 7-12.8-2 4-3.9 7.8-5.6 11.5 11.1-10.8 21.7-20.2 26.2-24.1-7.1 6.6-18.9 20.9-29.5 34.2 3.7-3.4 7.7-6.9 12.1-10.2 0 0-9.5 9.4-19.3 22.9-7.7 16.9-10.9 26.7-12.2 32.1z"/>
  <g><defs>
    <path id="a" d="M24.7 182.1c0-3.3 1.1-5.4 2.3-5.4h128.8c1.4 0 2.3 2.5 2.3 5.4v6.5c0 3.3-1.1 5.4-2.3 5.4H26.9c-1.4 0-2.3-2.5-2.3-5.4v-6.5z"/>
    </defs><use xlink:href="#a" overflow="visible" fill="#754C29"/><clipPath id="b"><use xlink:href="#a" overflow="visible"/></clipPath><path clip-path="url(#b)" fill="#754C29" d="M23 172.6h136.8v25.8H23z"/>
    <g><defs><path id="c" d="M24.7 219.1c0-2.2.8-4 1.7-4h130.2c.9 0 1.7 1.8 1.7 4v3.3c0 2.2-.8 4-1.7 4H26.3c-.9 0-1.7-1.8-1.7-4v-3.3z"/></defs><use xlink:href="#c" overflow="visible" fill="#754C29"/>
      <clipPath id="d"><use xlink:href="#c" overflow="visible"/>
      </clipPath><path clip-path="url(#d)" fill="#754C29" d="M23 211.1h136.8v19.2H23z"/></g><g><defs><path id="e" d="M31 185.3c0-3.3 1.1-5.4 2.3-5.4h3.6c1.4 0 2.3 2.5 2.3 5.4v83.1c0 3.3-1.1 5.4-2.3 5.4h-3.6c-1.4 0-2.3-2.5-2.3-5.4v-83.1z"/></defs><use xlink:href="#e" overflow="visible" fill="#754C29"/>
    <clipPath id="f">
      <use xlink:href="#e" overflow="visible"/></clipPath>
    <path clip-path="url(#f)" fill="#754C29" d="M29.3 175.9h11.6v102.3H29.3z"/></g><g><defs><path id="g" d="M141.9 185.3c0-3.3 1.1-5.4 2.3-5.4h3.6c1.4 0 2.3 2.5 2.3 5.4v83.1c0 3.3-1.1 5.4-2.3 5.4h-3.6c-1.4 0-2.3-2.5-2.3-5.4v-83.1z"/></defs><use xlink:href="#g" overflow="visible" fill="#754C29"/><clipPath id="h"><use xlink:href="#g" overflow="visible"/>
    </clipPath><path clip-path="url(#h)" fill="#754C29" d="M140.2 175.9h11.6v102.3h-11.6z"/></g></g></svg>