<?xml version="1.0" encoding="utf-8"?>
<!-- Generator: Adobe Illustrator 19.1.0, SVG Export Plug-In . SVG Version: 6.00 Build 0)  -->
<svg version="1.1" id="Layer_1" xmlns="http://www.w3.org/2000/svg" xmlns:xlink="http://www.w3.org/1999/xlink" x="0px" y="0px"
	 viewBox="-238.8 340.5 45.5 91.6" enable-background="new -238.8 340.5 45.5 91.6" xml:space="preserve">
<g>
	<polygon points="-205.4,428 -226.6,428 -234.2,401.1 -197.8,401.1 	"/>
	<polygon fill="#A03A12" points="-225.8,427 -206.2,427 -199.1,402.1 -232.9,402.1 	"/>
</g>
<g>
	<g>
		<rect x="-233.5" y="401.5" width="35.1" height="0.2"/>
	</g>
	<g>
		<rect x="-232.6" y="404.8" width="33.2" height="0.2"/>
	</g>
	<g>
		<rect x="-231.7" y="408" width="31.4" height="0.2"/>
	</g>
	<g>
		<rect x="-230.8" y="411.2" width="29.6" height="0.2"/>
	</g>
	<g>
		<rect x="-229.9" y="414.5" width="27.7" height="0.2"/>
	</g>
	<g>
		<rect x="-228.9" y="417.7" width="25.9" height="0.2"/>
	</g>
	<g>
		<rect x="-228" y="420.9" width="24.1" height="0.2"/>
	</g>
	<g>
		<rect x="-227.1" y="424.2" width="22.2" height="0.2"/>
	</g>
	<g>
		<rect x="-226.2" y="427.4" width="20.4" height="0.2"/>
	</g>
</g>
<g>
	<path fill="#006D0A" d="M-228.1,401.6c0,0,0.6-15,1-25.9c0.2-6.1-0.1-10.9,0.5-10.9c0.8,0,2,4.3,2.5,9.9c0.8,9.7,0.7,23.4,1.1,26.9
		"/>
</g>
<g>
	<path fill="#006D0A" d="M-223.6,401.6c0,0,0-20.6,0.6-34.8c0.3-7.5,0.1-11.8,0.8-11.8c0.5,0,1.7,2.2,1.9,7.6c0.6,12.5,0.6,34,1,39"
		/>
</g>
<g>
	<path fill="#006D0A" d="M-211.4,401.6c0,0,0-19,0.7-31c0.3-5.6,2-9.7,2.7-9.7c0.7,0-0.1,5.7,0.1,12.9c0.4,10.5,0.4,24.2,0.7,27.8"
		/>
</g>
<g>
	<path fill="#006D0A" d="M-219.4,401.6c0,0,0-27.6,0.7-44.8c0.3-7.8-0.1-11,0.6-11c0.5,0,1.7,0.6,2,5.4c0.7,14.4,0.7,43.9,1.1,50.4"
		/>
</g>
<g>
	<path fill="#006D0A" d="M-215.3,401.6c0,0,0-30.1,0.8-46.6c0.3-6.3,1.4-11.5,2-11.5c0.6,0,0.7,6.3,1,14.1c0.5,15.1,0.2,38.4,0.6,44
		"/>
</g>
<g>
	<path fill="#006D0A" d="M-207.6,401.6c0,0,0-15,0.6-25c0.3-5.1-0.1-8.9,0.6-8.9c0.5,0,1.8,2.9,2.1,7c0.5,8.9,0.6,23.4,0.9,26.9"/>
</g>
</svg>
