<?xml version="1.0" encoding="utf-8"?>
<!-- Generator: Adobe Illustrator 19.1.0, SVG Export Plug-In . SVG Version: 6.00 Build 0)  -->
<svg version="1.1" id="Layer_1" xmlns="http://www.w3.org/2000/svg" xmlns:xlink="http://www.w3.org/1999/xlink" x="0px" y="0px"
	 viewBox="-255 356.6 100 81.7" style="enable-background:new -255 356.6 100 81.7;" xml:space="preserve">
<style type="text/css">
	.st0{fill:#506570;stroke:#36444B;stroke-miterlimit:10;}
	.st1{fill:#29332B;stroke:#36444B;stroke-width:0.5;stroke-miterlimit:10;}
	.st2{fill:#6B8795;stroke:#506570;stroke-width:0.5;stroke-miterlimit:10;}
	.st3{fill:#506570;stroke:#506570;stroke-width:0.5;stroke-miterlimit:10;}
</style>
<path class="st0" d="M-197.7,375.8c-4.5,0.1-9.5,0.7-14.7,1.9c3.5,0.2,8.7,0.5,14.7,0.6V375.8z"/>
<path class="st0" d="M-178,377.9c-3-0.7-7.4-1.6-12.6-1.9v2.4C-186.5,378.3-182.2,378.2-178,377.9z"/>
<path class="st1" d="M-196.6,363l0,21.9l0,0.1c0,1.1,1.1,2.1,2.5,2.1c1.4,0,2.6-1,2.6-2.1V363H-196.6z M-194.1,385.7
	c-0.8,0-1.5-0.7-1.5-1.5c0-0.8,0.6-1.4,1.5-1.4c0.8,0,1.5,0.6,1.5,1.4C-192.6,385.1-193.3,385.7-194.1,385.7z"/>
<path class="st2" d="M-156,386.7c-1.4-3.2-4.7-5.2-8.4-5.2c-1.2,0-2.5,0.2-3.6,0.7c-1.3,0.5-2.5,1.3-3.6,2.3v4.2
	c1.5-1.9,3-3.2,4.7-3.9c0.8-0.3,1.6-0.5,2.5-0.5c2.6,0,4.8,1.4,5.8,3.5c2.5,5.7-2,10.3-6.9,15.1c-2.4,2.4-4.7,4.7-6.1,7.2v9.8h1.2
	c0,0,0.1-6.2,1.2-8.3c1.2-2.1,3.4-4.3,5.7-6.6C-158.4,399.9-152.7,394.2-156,386.7z"/>
<path class="st2" d="M-175.2,378.6c-5.2,0.5-10.4,0.7-15.3,0.7v5.6c0,1.8-1.6,3.2-3.6,3.2c-1.8,0-3.3-1.2-3.5-2.7c0,0,0-0.4,0-0.5
	v-5.6c-7.9-0.1-19.2-1-19.3-1v48.3c0.3,0.1,1,0.3,1.9,0.6c0.4,0.1,2.2,0.6,2.8,0.7c6.7,1.6,19.6,3.6,34.4,0.1
	c0.5-0.1,5.3-1.4,5.4-1.5v-48.2C-172.6,378.4-174.8,378.6-175.2,378.6z"/>
<path class="st3" d="M-250,383.9c1.5-1.7,2.8-3.5,3.5-4.9c0.2-0.3,0.3-0.5,0.4-0.8c-1.4,0.7-3.2,2.2-5,4.3c-1.9,2.2-3.2,4.3-3.7,5.8
	c0.1-0.1,0.2-0.2,0.4-0.3C-253.1,387.1-251.5,385.6-250,383.9z"/>
<path class="st2" d="M-240.6,388.7l-1.1-3.1l-2.4-7c0-0.2-0.1-0.3-0.1-0.5l0-0.1l0,0c0,0,0,0,0,0c-0.2-0.1-0.4-0.2-0.7-0.2
	c-0.1,0.5-0.4,1-0.7,1.6c-0.8,1.5-2.1,3.4-3.7,5.1c-1.6,1.8-3.2,3.3-4.6,4.3c-0.4,0.3-0.8,0.5-1.1,0.7c0,0.2,0.1,0.3,0.2,0.4
	c0,0,0,0,0.1,0l0,0l0,0c0.2,0.1,0.3,0.1,0.6,0.1l7.2,1.5l3.6,0.8l25.1,23.8v-9.7L-240.6,388.7z"/>
</svg>
